<svg width="559" height="228" viewBox="0 0 559 228" fill="none" xmlns="http://www.w3.org/2000/svg">
<path d="M0 24.192C0 37.4976 10.8864 48.384 24.192 48.384C37.4976 48.384 48.384 37.4976 48.384 24.192C48.384 10.8864 37.4976 0 24.192 0C10.8864 0 0 10.8864 0 24.192ZM1.20965 179.021H47.1744V58.0608H1.20965V179.021Z" fill="#006BFF"/>
<path d="M97.1725 53.2224V179.021H145.556V62.8992L106.123 53.2224H186.683V9.67676H56.0461V53.2224H97.1725Z" fill="#006BFF"/>
<path d="M268.996 167.892L271.415 168.86C266.819 179.021 256.658 186.036 242.385 186.036H210.451L219.161 227.405H248.917C285.931 227.405 303.591 190.875 303.591 166.441V58.0605H257.626V133.54C257.626 139.104 254.723 142.491 247.707 142.491C241.175 142.491 237.789 139.346 237.789 133.54V58.0605H191.824V132.088C191.824 158.457 208.516 177.569 239.966 177.569C252.546 177.569 263.19 174.182 268.996 167.892Z" fill="#006BFF"/>
<path d="M356.17 58.0604H321.092V227.404H367.057V178.779C371.895 180.956 377.701 182.407 384.717 182.407C416.167 182.407 434.795 163.296 434.795 127.25V109.589C434.795 73.5433 419.796 54.4316 386.894 54.4316C359.557 54.4316 348.913 78.8656 346.01 97.4934H344.075C345.768 84.4297 349.639 71.1241 356.17 58.0604ZM367.057 133.539V103.299C367.057 97.4934 369.96 94.3484 376.976 94.3484C383.507 94.3484 386.894 97.4934 386.894 103.299V133.539C386.894 139.346 383.507 142.491 376.976 142.491C369.96 142.491 367.057 139.104 367.057 133.539Z" fill="#006BFF"/>
<path d="M490.992 133.782V125.798H558.487V115.638C558.487 74.2693 540.343 54.6738 502.12 54.6738C465.832 54.6738 445.995 73.7855 445.995 110.799V130.395C445.995 163.538 465.832 182.65 502.12 182.65C533.812 182.65 551.714 169.344 556.794 149.99L514.942 134.507C512.765 140.072 508.894 142.733 502.846 142.733C494.862 142.733 490.992 139.588 490.992 133.782ZM490.992 108.38V103.542C490.992 97.7356 494.862 94.5906 502.12 94.5906C509.861 94.5906 513.248 97.9775 513.248 103.542V108.38H490.992Z" fill="#006BFF"/>
</svg>
